# AST/ASF file generated using VICON BodyLanguage
# -----------------------------------------------
:version 1.10
:name VICON
:units
  mass 1.0
  length 0.45
  angle deg
:documentation
   .ast/.asf automatically generated from VICON data using
   VICON BodyBuilder and BodyLanguage model FoxedUp or BRILLIANT.MOD
:root
   order TX TY TZ RX RY RZ
   axis XYZ
   position 0 0 0  
   orientation 0 0 0 
:bonedata
  begin
     id 1 
     name lhipjoint
     direction 0.671379 -0.66392 0.329334 
     length 2.38647 
     axis 0 0 0  XYZ
  end
  begin
     id 2 
     name lfemur
     direction 0.34202 -0.939693 0  
     length 6.48179  
     axis 0 0 20  XYZ
    dof rx ry rz
    limits (-160.0 20.0)
           (-70.0 70.0)
           (-60.0 70.0)
  end
  begin
     id 3 
     name ltibia
     direction 0.34202 -0.939693 0   
     length 6.86524   
     axis 0 0 20   XYZ
    dof rx
    limits (-10.0 170.0)
  end
  begin
     id 4 
     name lfoot
     direction 0.204886 -0.562919 0.800715   
     length 1.73031   
     axis -90 7.62852e-016 20   XYZ
    dof rx rz
    limits (-45.0 90.0)
           (-70.0 20.0)
  end
  begin
     id 5 
     name ltoes
     direction 1.53548e-011 -4.21841e-011 1   
     length 0.828161   
     axis -90 7.62852e-016 20   XYZ
    dof rx
    limits (-90.0 20.0)
  end
  begin
     id 6 
     name rhipjoint
     direction -0.662732 -0.670855 0.332775   
     length 2.3618  
     axis 0 0 0  XYZ 
  end
  begin
     id 7 
     name rfemur
     direction -0.34202 -0.939693 0   
     length 6.3025   
     axis 0 0 -20   XYZ
    dof rx ry rz
    limits (-160.0 20.0)
           (-70.0 70.0)
           (-70.0 60.0)
  end
  begin
     id 8 
     name rtibia
     direction -0.34202 -0.939693 0   
     length 6.8732   
     axis 0 0 -20   XYZ
    dof rx
    limits (-10.0 170.0)
 end
 begin
     id 9 
     name rfoot
     direction -0.173856 -0.477665 0.861168   
     length 1.54784  
     axis -90 -7.62852e-016 -20   XYZ
    dof rx rz
    limits (-45.0 90.0)
           (-20.0 70.0)
  end
  begin
     id 10 
     name rtoes
     direction -1.53562e-011 -4.21802e-011 1   
     length 0.759618   
     axis -90 -7.62852e-016 -20   XYZ
    dof rx
    limits (-90.0 20.0)
  end
  begin
     id 11 
     name lowerback
     direction -0.0278357 0.999497 -0.0151789   
     length 1.97203   
     axis 0 0 0   XYZ
    dof rx ry rz
    limits (-20.0 45.0)
           (-30.0 30.0)
           (-30.0 30.0)
  end
  begin
     id 12 
     name upperback
     direction -0.00360622 0.997542 0.0699804   
     length 1.94709   
     axis 0 0 0   XYZ
    dof rx ry rz
    limits (-20.0 45.0)
           (-30.0 30.0)
           (-30.0 30.0)
  end
  begin
     id 13 
     name thorax
     direction 0.00907706 0.997048 0.0762461   
     length 1.95722   
     axis 0 0 0   XYZ
    dof rx ry rz
    limits (-20.0 45.0)
           (-30.0 30.0)
           (-30.0 30.0)
  end
  begin
     id 14 
     name lowerneck
     direction -0.0481835 0.99872 -0.0153927   
     length 1.63078   
     axis 0 0 0   XYZ
    dof rx ry rz
    limits (-20.0 45.0)
           (-30.0 30.0)
           (-30.0 30.0)
  end
  begin
     id 15 
     name upperneck
     direction 0.0859716 0.979226 -0.183644   
     length 1.62591   
     axis 0 0 0   XYZ
    dof rx ry rz
    limits (-20.0 45.0)
           (-30.0 30.0)
           (-30.0 30.0)
  end
  begin
     id 16
     name head
     direction 0.0324821 0.997629 -0.0606773  
     length 1.64811  
     axis 0 0 0   XYZ
    dof rx ry rz
    limits (-20.0 45.0)
           (-30.0 30.0)
           (-30.0 30.0)
  end
  begin
     id 17 
     name lclavicle
     direction 0.939609 0.311019 0.142835  
     length 3.70647  
     axis 0 0 0   XYZ
    dof ry rz
    limits (-20.0 10.0)
           (0.0 20.0)
  end
  begin
     id 18 
     name lhumerus
     direction 1 -4.48963e-011 -1.59838e-027   
     length 4.59207   
     axis 180 -30 -90   XYZ
    dof rx ry rz
    limits (-60.0 90.0)
           (-90.0 90.0)
           (-90.0 90.0)
  end
  begin
     id 19
     name lradius
     direction 1 -4.48957e-011 -1.3483e-026   
     length 2.98109   
     axis 180 -30 -90   XYZ
    dof rx
    limits (-10.0 170.0)
  end
  begin
     id 20
     name lwrist
     direction 1 -4.48954e-011 -3.11579e-026   
     length 1.49055   
     axis 2.00652e-014 90 90   XYZ
    dof ry
    limits (-180.0 0.0)
 end
  begin
     id 21 
     name lhand
     direction 1 -4.4911e-011 -6.23158e-026   
     length 0.480203   
     axis 3.97628e-014 90 90   XYZ
    dof rx rz
    limits (-90.0 90.0)
           (-45.0 45.0)
  end
  begin
     id 22 
     name lfingers
     direction 1 -4.48893e-011 -1.24632e-025   
     length 0.387152   
     axis 7.95256e-014 90 90   XYZ
    dof rx
    limits (0.0 90.0)
  end
  begin
     id 23
     name lthumb
     direction 0.707107 -6.35013e-011 0.707107   
     length 0.555875   
     axis -90 45 2.85299e-015   XYZ
    dof rx rz
    limits (-45.0 45.0)
           (-45.0 45.0)
  end
  begin
     id 24 
     name rclavicle
     direction -0.950396 0.30392 0.0661859   
     length 3.70894  
     axis 0 0 0   XYZ 
    dof ry rz
    limits (-10.0 20.0)
           (-20.0 0.0)
  end
  begin
     id 25 
     name rhumerus
     direction -1 -4.48957e-011 -2.96677e-027  
     length 4.76508   
     axis 180 30 90   XYZ
    dof rx ry rz
    limits (-90.0 60.0)
           (-90.0 90.0)
           (-90.0 90.0)
  end
  begin
     id 26 
     name rradius
     direction -1 -4.48974e-011 -1.44501e-026   
     length 2.78902   
     axis 180 30 90   XYZ
    dof rx
    limits (-10.0 170.0)
  end
  begin
     id 27 
     name rwrist
     direction -1 -4.48978e-011 -3.11579e-026   
     length 1.39451   
     axis 2.00652e-014 -90 -90   XYZ
    dof ry
    limits (-180.0 0.0)
  end
  begin
     id 28
     name rhand
     direction -1 -4.48956e-011 -6.23158e-026   
     length 0.721303   
     axis 3.97628e-014 -90 -90   XYZ
    dof rx rz
    limits (-90.0 90.0)
           (-45.0 45.0)
  end
  begin
     id 29
     name rfingers
     direction -1 -4.4899e-011 -1.24632e-025   
     length 0.581533   
     axis 7.95256e-014 -90 -90   XYZ
    dof rx
    limits (0.0 90.0)
  end
  begin
     id 30
     name rthumb
     direction -0.707107 -6.34911e-011 0.707107   
     length 0.834968   
     axis -90 -45 -2.85299e-015   XYZ
    dof rx rz
    limits (-45.0 45.0)
           (-45.0 45.0)
  end
:hierarchy
  begin
    root lhipjoint rhipjoint lowerback
    lhipjoint lfemur
    lfemur ltibia
    ltibia lfoot
    lfoot ltoes
    rhipjoint rfemur
    rfemur rtibia
    rtibia rfoot
    rfoot rtoes
    lowerback upperback
    upperback thorax
    thorax lowerneck lclavicle rclavicle
    lowerneck upperneck
    upperneck head
    lclavicle lhumerus
    lhumerus lradius
    lradius lwrist
    lwrist lhand lthumb
    lhand lfingers
    rclavicle rhumerus
    rhumerus rradius
    rradius rwrist
    rwrist rhand rthumb
    rhand rfingers
  end

#!OML:ASF I:\salsa\salsa 7_09\Patient 1\Session 1\dancerfemale.ASF
:FULLY-SPECIFIED
:DEGREES
631
root 1.28533 16.0031 1.68617 -363.194 134.701 -21.5036
lowerback 0.407388 4.9041 -3.06097
upperback -8.58366 6.82987 -8.69162
thorax -8.60232 3.63151 -8.19226
lowerneck -0.0789466 -1.61237 -13.4078
upperneck 9.23355 -2.48452 11.9609
head 3.03878 -1.168 5.831
rclavicle -4.60683e-014 3.69739e-014
rhumerus -74.8792 -4.35535 -78.8726
rradius 30.1075
rwrist 10.9585
rhand 14.5866 48.5015
rfingers 7.12502
rthumb 39.4624 23.1155
lclavicle -4.60683e-014 3.69739e-014
lhumerus -41.2346 -25.7887 105.902
lradius 95.8955
lwrist -15.6525
lhand -6.74768 22.8152
lfingers 7.12502
lthumb 19.1135 51.896
rfemur -45.1178 -18.4557 14.9656
rtibia 34.2892
rfoot -35.7975 -36.2635
rtoes 41.1959
lfemur -1.48622 3.19598 -31.613
ltibia 29.9353
lfoot 2.13721 -10.8667
ltoes -40.3956
632
root 1.53732 16.0253 1.5469 -362.707 132.094 -20.4166
lowerback 0.452822 4.46986 -1.55352
upperback -9.21314 6.28777 -8.56668
thorax -9.24647 3.22576 -8.95548
lowerneck -0.926216 -0.704142 -12.828
upperneck 10.1833 -1.20261 11.7962
head 3.28847 -0.488252 5.73081
rclavicle -7.75757e-014 -1.70955e-014
rhumerus -76.0928 -4.88272 -77.412
rradius 31.4899
rwrist 8.2253
rhand 14.948 48.5211
rfingers 7.12502
rthumb 39.8027 23.2359
lclavicle -7.75757e-014 -1.70955e-014
lhumerus -42.2892 -25.5543 105.852
lradius 95.958
lwrist -15.8724
lhand -7.23197 22.4219
lfingers 7.12502
lthumb 18.6477 51.5481
rfemur -44.3364 -17.6006 16.9627
rtibia 34.0527
rfoot -33.6412 -35.726
rtoes 38.8428
lfemur -3.31178 3.83668 -30.4408
ltibia 34.1333
lfoot 5.78801 -9.71549
ltoes -40.7804
633
root 1.79736 16.0325 1.42231 -362.63 129.123 -19.5424
lowerback 0.850814 4.09559 -0.38265
upperback -9.73029 5.79708 -8.3936
thorax -10.0441 2.84447 -9.51892
lowerneck -1.70707 0.189741 -12.0357
upperneck 10.8732 0.0458778 11.5551
head 3.46568 0.174273 5.57097
rclavicle -7.25564e-015 3.4191e-014
rhumerus -77.0363 -5.34275 -75.8904
rradius 33.2767
rwrist 4.66396
rhand 14.837 48.1921
rfingers 7.12502
rthumb 39.6981 22.8757
lclavicle -7.25564e-015 3.4191e-014
lhumerus -43.1629 -25.918 105.816
lradius 96.5311
lwrist -15.6272
lhand -8.04489 22.5182
lfingers 7.12502
lthumb 17.8656 51.7176
rfemur -43.0265 -16.2144 18.7062
rtibia 33.6418
rfoot -32.0167 -34.9855
rtoes 37.455
lfemur -5.46902 5.60666 -29.1567
ltibia 39.2389
lfoot 9.53743 -9.39932
ltoes -40.3368
634
root 2.04972 16.0254 1.31598 -362.541 125.914 -18.3356
lowerback 1.57234 3.753 0.761368
upperback -9.98728 5.33314 -8.04964
thorax -10.7815 2.4607 -9.87653
lowerneck -2.52438 1.00039 -11.1412
upperneck 11.1491 1.16975 11.3174
head 3.5553 0.771634 5.38819
rclavicle 5.43676e-014 -6.99722e-014
rhumerus -77.4649 -5.7855 -74.2251
rradius 35.4494
rwrist 0.8974
rhand 14.7909 48.0209
rfingers 7.12502
rthumb 39.6548 22.6917
lclavicle 5.43676e-014 -6.99722e-014
lhumerus -44.4149 -26.836 105.594
lradius 96.9716
lwrist -15.2437
lhand -9.68148 22.4831
lfingers 7.12502
lthumb 16.2904 51.8188
rfemur -41.3004 -14.5116 20.5275
rtibia 33.1391
rfoot -30.5845 -34.1712
rtoes 36.1687
lfemur -7.85018 7.8552 -27.562
ltibia 45.0009
lfoot 13.1018 -9.34151
ltoes -39.1275
635
root 2.2729 16.0118 1.22072 -361.947 122.808 -16.524
lowerback 2.52769 3.31046 2.21153
upperback -10.0619 4.77002 -7.59035
thorax -11.4819 1.98994 -10.2649
lowerneck -3.37286 1.6825 -10.6771
upperneck 11.1159 2.0953 11.5859
head 3.57942 1.27325 5.43148
rclavicle 1.2424e-013 -6.44062e-014
rhumerus -77.4949 -6.31563 -72.5931
rradius 38.0274
rwrist -2.72397
rhand 14.256 48.2204
rfingers 7.12502
rthumb 39.1508 22.7437
lclavicle 1.2424e-013 -6.44062e-014
lhumerus -45.076 -27.6145 105.184
lradius 97.0818
lwrist -14.8385
lhand -10.813 22.7751
lfingers 7.12502
lthumb 15.2007 52.1967
rfemur -39.4868 -13.0981 22.5892
rtibia 32.577
rfoot -29.397 -33.1975
rtoes 35.1304
lfemur -10.6956 9.88296 -25.7508
ltibia 51.1709
lfoot 16.7048 -9.31658
ltoes -36.3729
